<?xml version="1.0" encoding="UTF-8"?>
<svg width="51px" height="100px" viewBox="0 0 51 100" version="1.1" xmlns="http://www.w3.org/2000/svg" xmlns:xlink="http://www.w3.org/1999/xlink">
    <!-- Generator: Sketch 40.3 (33839) - http://www.bohemiancoding.com/sketch -->
    <title>Shape</title>
    <desc>Created with Sketch.</desc>
    <defs></defs>
    <g id="Page-1" stroke="none" stroke-width="1" fill="none" fill-rule="evenodd">
        <path d="M43.101,0 L7.837,0 C3.509,0 0,3.508 0,7.836 L0,92.163 C0,96.491 3.509,100 7.837,100 L43.101,100 C47.429,100 50.938,96.491 50.938,92.163 L50.938,7.836 C50.938,3.508 47.429,0 43.101,0 L43.101,0 Z M21.615,8.315 L29.323,8.315 C29.899,8.315 30.366,8.782 30.366,9.359 C30.366,9.935 29.899,10.402 29.323,10.402 L21.615,10.402 C21.038,10.402 20.571,9.935 20.571,9.359 C20.571,8.782 21.038,8.315 21.615,8.315 L21.615,8.315 Z M17.123,7.915 C17.81,7.915 18.367,8.472 18.367,9.159 C18.367,9.846 17.81,10.403 17.123,10.403 C16.436,10.403 15.879,9.846 15.879,9.159 C15.879,8.472 16.437,7.915 17.123,7.915 L17.123,7.915 Z M25.469,95.772 C22.764,95.772 20.571,93.58 20.571,90.875 C20.571,88.169 22.764,85.977 25.469,85.977 C28.174,85.977 30.366,88.169 30.366,90.875 C30.366,93.58 28.174,95.772 25.469,95.772 L25.469,95.772 Z M47.019,82.489 L3.919,82.489 L3.919,17.511 L47.019,17.511 L47.019,82.489 L47.019,82.489 Z" id="Shape" fill="#FFFFFF"></path>
    </g>
</svg>