<?xml version="1.0" encoding="UTF-8"?>
<svg width="68px" height="50px" viewBox="0 0 68 50" version="1.1" xmlns="http://www.w3.org/2000/svg" xmlns:xlink="http://www.w3.org/1999/xlink">
    <!-- Generator: Sketch 40.3 (33839) - http://www.bohemiancoding.com/sketch -->
    <title>Shape</title>
    <desc>Created with Sketch.</desc>
    <defs></defs>
    <g id="Page-1" stroke="none" stroke-width="1" fill="none" fill-rule="evenodd">
        <g id="imac" fill="#FFFFFF">
            <g id="Page-1">
                <path d="M64.84375,0.617188 L3.199219,0.617188 C1.597656,0.617188 0.296875,1.914062 0.296875,3.515625 L0.296875,39.960938 C0.296875,41.5625 1.597656,42.859375 3.199219,42.859375 L29.488281,42.859375 L27.097656,48.984375 L26.089844,48.984375 L26.089844,49.765625 L41.324219,49.765625 L41.324219,48.984375 L40.3125,48.984375 L37.890625,42.859375 L64.84375,42.859375 C66.445312,42.859375 67.742188,41.5625 67.742188,39.960938 L67.742188,3.515625 C67.746094,1.914062 66.445312,0.617188 64.84375,0.617188 L64.84375,0.617188 L64.84375,0.617188 Z M32.027344,38.691406 C32.027344,37.589844 32.921875,36.695312 34.023438,36.695312 C35.125,36.695312 36.015625,37.589844 36.015625,38.691406 C36.015625,39.792969 35.125,40.683594 34.023438,40.683594 C32.921875,40.683594 32.027344,39.792969 32.027344,38.691406 L32.027344,38.691406 L32.027344,38.691406 Z M64.84375,33.796875 L3.199219,33.796875 L3.199219,3.515625 L64.84375,3.515625 L64.84375,33.796875 L64.84375,33.796875 Z" id="Shape"></path>
            </g>
        </g>
    </g>
</svg>